<?xml version="1.0" encoding="utf-8"?>
<!-- Generator: Adobe Illustrator 24.1.3, SVG Export Plug-In . SVG Version: 6.00 Build 0)  -->
<svg version="1.1" id="Ebene_1" xmlns="http://www.w3.org/2000/svg" xmlns:xlink="http://www.w3.org/1999/xlink" x="0px" y="0px"
	 viewBox="0 0 384 384" style="enable-background:new 0 0 384 384;" xml:space="preserve">
<style type="text/css">
	.st0{display:none;}
	.st1{display:inline;fill:#343A40;}
	.st2{fill:none;stroke:#FF6633;stroke-width:3;stroke-miterlimit:10;}
</style>
<g id="Ebene_1_1_" class="st0">
	<path class="st1" d="M176,288c0,8.8,7.2,16,16,16s16-7.2,16-16V96c0-8.8-7.2-16-16-16s-16,7.2-16,16V288z"/>
	<path class="st1" d="M16,96c-8.8,0-16,7.2-16,16v160c0,8.8,7.2,16,16,16s16-7.2,16-16V112C32,103.2,24.8,96,16,96z"/>
	<path class="st1" d="M152,256V128c0-8.8-7.2-16-16-16s-16,7.2-16,16v128c0,8.8,7.2,16,16,16S152,264.8,152,256z"/>
	<path class="st1" d="M80,240c8.8,0,16-7.2,16-16v-64c0-8.8-7.2-16-16-16s-16,7.2-16,16v64C64,232.8,71.2,240,80,240z"/>
	<path class="st1" d="M264,256V128c0-8.8-7.2-16-16-16s-16,7.2-16,16v128c0,8.8,7.2,16,16,16C256.8,272,264,264.8,264,256z"/>
	<path class="st1" d="M368,96c-8.8,0-16,7.2-16,16v160c0,8.8,7.2,16,16,16s16-7.2,16-16V112C384,103.2,376.8,96,368,96z"/>
	<path class="st1" d="M304,144c-8.8,0-16,7.2-16,16v64c0,8.8,7.2,16,16,16s16-7.2,16-16v-64C320,151.2,312.8,144,304,144z"/>
	<path class="st1" d="M176,368c0,8.8,7.2,16,16,16s16-7.2,16-16v-16c0-8.8-7.2-16-16-16s-16,7.2-16,16V368z"/>
	<path class="st1" d="M192,48c8.8,0,16-7.2,16-16V16c0-8.8-7.2-16-16-16s-16,7.2-16,16v16C176,40.8,183.2,48,192,48z"/>
</g>
<path class="st2" d="M160.5,171.2c0.2,0,0.1-0.3,0.1-0.4c0-21.1,0.6-43,0.6-64.1c0-9.6-1.3-20.6,0.9-29.9c1.9-8,0.7-15.4,2-23.5
	c1-6.2,1.7-12.9,1.6-19.1c0-2,5.6-9.4,2.5-4.6c-0.4,0.7-0.1,6.8-0.1,4.8c0,8.9,0,17.8,0,26.7c0,13.3-0.3,26.4,1,39.7
	c1.1,11.7,3.2,23.2,4,34.9c0.5,7.5,2.5,14.7,4.5,22c1,3.4-0.4,7.4,0.5,10.7c0.1,0.2,0.4,0.3,0.5,0.1c1.4-1.9,2.5-3.1,4.6-4.5
	c9.9-6.7,17-16.1,24.9-24.8c2.2-2.4,4.8-4.3,6.9-6.7c4.5-4.9,9.2-9.7,13.8-14.5c5.9-6.1,11.3-12.1,18.1-17.2
	c5.1-3.8,10.1-7.8,14.8-12.2c6.5-6.1,13.1-12.2,19.5-18.5c3.2-3.1,6.1-6.6,9.8-9.1c0.7-0.5,2.2-2.8,3.5-2.7
	c0.5,1.2-9.1,10.3-12.4,14.9c-9,12.5-17.7,25.6-28.6,36.6c-2.3,2.3-4,5.2-6.5,7.3c-2.3,2-4.6,3.8-6.8,6c-3.7,3.6-7.6,6.7-11.3,10.2
	c-5.4,5.1-10.2,10.8-16,15.5c-5.1,4.2-8.5,10.3-13.3,14.8c-3.7,3.5-7,7.6-9.9,11.9c-0.9,1.4-1.6,2.2-2.8,3.3
	c-0.5,0.4-1.1,0.9-1.5,1.5c-0.3,0.4,0,0.9,0.4,1c1.4,0.3,3,0,4.2-0.7c2.5-1.5,4.1-1.9,7.4-2.3c16-1.6,32.1-1,48.1-1
	c18.3,0,36.9-1.1,55.1,1c14.1,1.6,28.4,2.2,42.4,4.8c4.7,0.8,9.5,1,14.1,2.2c3,0.8,5.8,1.8,8.8,2.8c0.1,0,0.1,0.2,0,0.2
	c-2.7-0.2-5.5-0.2-8.1-0.1c-4.9,0.2-9.7,2.2-14.5,3.1c-4.5,0.9-9,1.4-13.5,2.2c-7.7,1.5-15.7,0.6-23.5,1.5c-4.7,0.5-9.3,0.2-14,0.9
	c-4.1,0.6-8.2,1.4-12.3,2c-22,3-43.5,8.9-66,8.2c-5-0.1-9.9,0-14.9,0c-3.1,0.1-7.5-0.7-11-0.3c-1.1,0.1-1.5,1.5-0.6,2.2
	c3.1,2.4,6.4,4.7,9.6,6.9c5.7,4,9.7,9.1,14.3,14.3c5.3,5.8,10,12.3,15.4,18c4.4,4.7,9.2,9,13.8,13.3c5.4,5.1,10.7,10,15.5,15.7
	c3.9,4.7,7.7,9.4,11.6,14c4.9,5.8,11.4,10.7,15.8,16.8c0.1,0.2-0.1,0.5-0.3,0.4c-2.8-1-5.4-3-8.1-4.3c-5.3-2.5-10.8-4.5-16.1-7.1
	c-1.9-1-4.2-1.9-6-3.1c-1.9-1.3-3.3-3.3-4.9-4.8c-4.2-4.1-8.9-8-13.3-11.7c-10-8.4-19.1-17.6-27.7-27.3c-6.3-7-13.1-14.3-17.6-22.6
	c-1.6-3-3.4-5.7-5.1-8.6c-0.9-1.5-1.3-3.4-2.4-4.7c-0.8-1-1.9-1.3-2.8-2.1c-2.3-2.1-4-5-6.1-7.4c-0.4-0.5-1.1-0.2-1.1,0.4
	c0,0.8,0,1.7,0,2.5c0,2.4,0.6,4.1,1,6.3c0.5,3.2,1,6,1,9.2c0,4.3,1.4,8.4,1.8,12.7c0.5,4.7,1.3,9.5,1.3,14.3c0,4.6-0.2,9.3-0.1,13.9
	c0.1,3.8,1,7.7,1.5,11.5c0.8,6.5,1,13.1,1.8,19.6c0.5,4.1,0.9,8.2,0.9,12.3c0,7.3,0.6,14.9-0.5,22.1c-0.8,5.4-1.6,10.7-1.5,16.1
	c0,1.8-0.3,2.9-0.8,4.6c-0.8,3.2,0.1,6.6-0.3,9.9c-0.2,1.4-0.5,7.7-1.5,11c-0.3,0.9-1.5,0.9-1.8,0c-0.6-1.7-1.1-3.5-1.4-5.1
	c-0.3-1.6,0-3.3-0.4-4.9c-0.7-2.9-2.3-5.7-3.2-8.5c-1.2-4-1.7-7.9-1.6-12.1c0-2.6-0.6-4.3-1.1-6.8c-0.7-4,0.5-8.3-0.2-12.4
	c-0.9-5.5-0.4-10.8-1-16.3c-0.7-6.6-1.9-13-1.8-19.7c0.1-14.5-0.1-28.9,0-43.4c0-3.1-1-5.9-1-9c-0.1-3,0-6,0-8.9v-22.7
	c0-0.1-0.1-0.1-0.1,0c-0.4,2.1-1.8,4.1-2.4,6.1c-1.6,5.6-3.7,12-6.8,16.7c-3.3,4.9-7.3,9.9-11.3,14.3c-2.6,3-5.8,5.5-8.3,8.6
	c-3.9,4.9-7.6,9.7-11.1,14.9c-5.1,7.4-10.3,13.8-16.3,20.5c-4.2,4.8-9.3,9.4-12.8,14.7c-2,3-3.7,6-6,8.8c-1,1.2-2.5,3.6-3.9,4.9
	c-0.4,0.4-1.1,0.2-1.2-0.4c-0.5-3.1,0.3-7.5,1-10.2c1.6-6.9,5.1-13.4,10.1-18.4c2.8-2.8,6.5-4.1,9.2-7.1c4.6-5,7.7-10.8,11.1-16.6
	c3.6-6.3,7.6-12.7,11.7-18.7c2.1-3.1,4.8-6.4,7.4-9.1c1.5-1.5,3.1-3,4.6-4.5c0.6-1.1,1.4-2.1,2.3-3c3.4-2.5,7-3.4,9-7.1
	c1.8-3.4,5.2-6,6.6-9.4c0-0.1,0-0.2-0.1-0.2c-4.2-1.5-8.2,1.8-11.7,3.6c-8,4-17.6,4.1-26.3,6c-14.3,3.1-28.4,6.1-42.9,8
	c-7,0.9-14,2.4-21.1,2.4c-4.5,0-8.7-0.3-12.9,0.7c-3,0.7-8.9,1-12.5,0.3c-0.8-0.1-1-1.2-0.3-1.6c1.8-1.1,5.7-1.4,7.1-1.5
	c1.1-0.2,1.9-0.1,2.9-0.4c1.1-0.3,2.5-1,3.7-1.3c4.3-0.9,8.8-0.8,13-2.1c8.9-2.7,17.6-5,26.8-6.6c7.3-1.3,14.2-4.7,21.4-6.6
	c7.9-2.1,16.7-3.3,24.3-6.2c5.1-1.9,10.1-4.2,15.5-5.5c2.8-0.7,5.7-0.9,8.6-1.4c2.3-0.4,4.9-1.8,7.2-1.7c0.1,0,0.1-0.1,0.1-0.1
	c-2.2-2.5-5.2-4-7.6-6.5c-4.8-5-9.9-9.6-13.9-15.2c-5-7-8.6-14.8-12.9-22.2c-3.3-5.6-7.5-10.9-11.8-15.8
	c-4.5-5.2-7.5-11.9-10.3-18.1c-2.2-5.1-4.8-10.1-7.2-15.1c-0.7-1.5-0.5-2.2-1.2-3.7c-0.3-0.7-2.3-3-2.2-4.3c0.1-0.5,0.6-0.8,1-0.4
	c1.6,1.5,3,5.9,4.4,7.9c3.7,5.1,8.1,10.1,13,14c4.9,3.9,9.8,8.1,14,12.8c1.1,1.2,2,2.6,3.1,3.7c1.5,1.5,3.7,2.6,5.1,4.3
	c2,2.3,4,4.9,5.8,7.4c4.3,5.8,10,10.5,14.4,16.3c2,2.7,4.2,6,5.5,9.1c0.6,1.4,1.3,5,2.1,5.9L160.5,171.2z"/>
</svg>
