<svg xmlns="http://www.w3.org/2000/svg" viewBox="0 0 37.7 39.55"><defs><style>.cls-1{fill:#f63;}</style></defs><g id="Ebene_2" data-name="Ebene 2"><g id="Ebene_1-2" data-name="Ebene 1"><path class="cls-1" d="M30.49,39.55c-2,0-4.65-.95-7.41-4.3l-12.37-15a6.07,6.07,0,0,1-1.6-3.16c.05-1.3,1.05-1.65,2.91-1.4l15.22,2c5.35.7,7.11-1.7,7.11-4.3S32.44,9,28.79,9H13.12c-5.16,0-8,3.06-8,6.61a7.61,7.61,0,0,0,.65,2.9l5.11,12c1.95,4.61,1.35,9-4.36,9C3.45,39.55,0,37.15,0,30,0,13,7.16,0,22.38,0,34.75,0,37.7,7.81,37.7,12.32c0,3.4-1.25,6.46-8.31,9l-8.21,2.9c-1.2.4-2.15,1-2.15,2.21s.8,1.55,2.7,1.55l9.86.1c3.31.05,5.81,2.1,5.81,5.2S35.7,39.55,30.49,39.55Z"/></g></g></svg>